<svg width="30" height="30" viewBox="0 0 30 30" fill="none" xmlns="http://www.w3.org/2000/svg">
<path d="M19.9123 14.3213L9.46294 4.36501C9.28858 4.1988 9.05694 4.10608 8.81606 4.10608C8.57518 4.10608 8.34354 4.1988 8.16919 4.36501L8.15794 4.37626C8.07312 4.45683 8.00558 4.55382 7.95943 4.66132C7.91328 4.76882 7.88948 4.88458 7.88948 5.00157C7.88948 5.11856 7.91328 5.23432 7.95943 5.34182C8.00558 5.44932 8.07312 5.54631 8.15794 5.62688L17.9979 15.0019L8.15794 24.3731C8.07312 24.4537 8.00558 24.5507 7.95943 24.6582C7.91328 24.7657 7.88948 24.8815 7.88948 24.9984C7.88948 25.1154 7.91328 25.2312 7.95943 25.3387C8.00558 25.4462 8.07312 25.5432 8.15794 25.6238L8.16919 25.635C8.34354 25.8012 8.57518 25.8939 8.81606 25.8939C9.05694 25.8939 9.28858 25.8012 9.46294 25.635L19.9123 15.6788C20.0042 15.5912 20.0774 15.4859 20.1274 15.3692C20.1773 15.2525 20.2031 15.1269 20.2031 15C20.2031 14.8731 20.1773 14.7475 20.1274 14.6308C20.0774 14.5141 20.0042 14.4088 19.9123 14.3213Z" fill="#699BF7"/>
</svg>
