<svg width="28" height="28" viewBox="0 0 28 28" fill="none" xmlns="http://www.w3.org/2000/svg">
<path d="M2.56661 19.1329L7.23328 12.9204C7.34995 12.7649 7.49111 12.6482 7.65678 12.5704C7.82245 12.4927 7.99239 12.4538 8.16661 12.4538C8.34161 12.4538 8.51195 12.4927 8.67761 12.5704C8.84328 12.6482 8.98406 12.7649 9.09995 12.9204L13.0666 18.1996C13.1833 18.3552 13.3194 18.4718 13.4749 18.5496C13.6305 18.6274 13.8055 18.6663 13.9999 18.6663C14.4861 18.6663 14.8361 18.4477 15.0499 18.0106C15.2638 17.5735 15.2249 17.1601 14.9333 16.7704L11.9583 12.8329L15.3999 8.25378C15.5166 8.09822 15.6578 7.98155 15.8234 7.90378C15.9891 7.826 16.1591 7.78711 16.3333 7.78711C16.5083 7.78711 16.6786 7.826 16.8443 7.90378C17.0099 7.98155 17.1507 8.09822 17.2666 8.25378L25.4333 19.1329C25.7249 19.5218 25.7638 19.9302 25.5499 20.3579C25.3361 20.7857 24.9861 20.9996 24.4999 20.9996H3.49995C3.01384 20.9996 2.66384 20.7857 2.44995 20.3579C2.23606 19.9302 2.27495 19.5218 2.56661 19.1329Z" fill="#699BF7"/>
</svg>
