<svg width="28" height="28" viewBox="0 0 28 28" fill="none" xmlns="http://www.w3.org/2000/svg">
<path d="M15.1667 24.4997V22.1663H19.8334V24.4997C19.8334 24.8302 19.7214 25.1075 19.4974 25.3315C19.2734 25.5555 18.9965 25.6671 18.6667 25.6663H16.3334C16.0028 25.6663 15.7259 25.5543 15.5027 25.3303C15.2795 25.1063 15.1675 24.8295 15.1667 24.4997ZM8.16669 24.4997V20.9997H2.12919C1.66252 20.9997 1.32224 20.7955 1.10835 20.3872C0.894463 19.9788 0.913908 19.5802 1.16669 19.1913L4.49169 13.9997C4.04446 13.9997 3.70924 13.8006 3.48602 13.4023C3.2628 13.0041 3.28691 12.6102 3.55835 12.2205L9.53752 3.70384C9.65419 3.54829 9.80002 3.42695 9.97502 3.33984C10.15 3.25273 10.325 3.20879 10.5 3.20801C10.675 3.20801 10.85 3.25195 11.025 3.33984C11.2 3.42773 11.3459 3.54906 11.4625 3.70384L17.4417 12.2205C17.7139 12.6094 17.7384 13.0033 17.5152 13.4023C17.292 13.8013 16.9564 14.0005 16.5084 13.9997L19.8625 19.1913C20.1153 19.5802 20.1347 19.9788 19.9209 20.3872C19.707 20.7955 19.3667 20.9997 18.9 20.9997H12.8334V24.4997C12.8334 24.8302 12.7214 25.1075 12.4974 25.3315C12.2734 25.5555 11.9965 25.6671 11.6667 25.6663H9.33335C9.0028 25.6663 8.72591 25.5543 8.50269 25.3303C8.27946 25.1063 8.16746 24.8295 8.16669 24.4997ZM22.4584 20.9997L18.6667 15.1663C19.1334 15.1663 19.4787 14.9575 19.7027 14.5398C19.9267 14.1222 19.9022 13.7185 19.6292 13.3288L14.7292 6.32884L16.5375 3.70384C16.6542 3.54829 16.8 3.42695 16.975 3.33984C17.15 3.25273 17.325 3.20879 17.5 3.20801C17.675 3.20801 17.85 3.25195 18.025 3.33984C18.2 3.42773 18.3459 3.54906 18.4625 3.70384L24.4417 12.2205C24.7139 12.6094 24.7384 13.0033 24.5152 13.4023C24.292 13.8013 23.9564 14.0005 23.5084 13.9997L26.8334 19.1913C27.0861 19.5802 27.1056 19.9788 26.8917 20.3872C26.6778 20.7955 26.3375 20.9997 25.8709 20.9997H22.4584Z" fill="black"/>
</svg>
