<svg width="28" height="28" viewBox="0 0 28 28" fill="none" xmlns="http://www.w3.org/2000/svg">
<path d="M15.1668 24.4997V22.1663H19.8335V24.4997C19.8335 24.8302 19.7215 25.1075 19.4975 25.3315C19.2735 25.5555 18.9966 25.6671 18.6668 25.6663H16.3335C16.0029 25.6663 15.726 25.5543 15.5028 25.3303C15.2796 25.1063 15.1676 24.8295 15.1668 24.4997ZM8.16681 24.4997V20.9997H2.12931C1.66264 20.9997 1.32236 20.7955 1.10847 20.3872C0.894585 19.9788 0.91403 19.5802 1.16681 19.1913L4.49181 13.9997C4.04458 13.9997 3.70936 13.8006 3.48614 13.4023C3.26292 13.0041 3.28703 12.6102 3.55847 12.2205L9.53764 3.70384C9.65431 3.54829 9.80014 3.42695 9.97514 3.33984C10.1501 3.25273 10.3251 3.20879 10.5001 3.20801C10.6751 3.20801 10.8501 3.25195 11.0251 3.33984C11.2001 3.42773 11.346 3.54906 11.4626 3.70384L17.4418 12.2205C17.714 12.6094 17.7385 13.0033 17.5153 13.4023C17.2921 13.8013 16.9565 14.0005 16.5085 13.9997L19.8626 19.1913C20.1154 19.5802 20.1348 19.9788 19.921 20.3872C19.7071 20.7955 19.3668 20.9997 18.9001 20.9997H12.8335V24.4997C12.8335 24.8302 12.7215 25.1075 12.4975 25.3315C12.2735 25.5555 11.9966 25.6671 11.6668 25.6663H9.33347C9.00292 25.6663 8.72603 25.5543 8.50281 25.3303C8.27958 25.1063 8.16758 24.8295 8.16681 24.4997ZM22.4585 20.9997L18.6668 15.1663C19.1335 15.1663 19.4788 14.9575 19.7028 14.5398C19.9268 14.1222 19.9023 13.7185 19.6293 13.3288L14.7293 6.32884L16.5376 3.70384C16.6543 3.54829 16.8001 3.42695 16.9751 3.33984C17.1501 3.25273 17.3251 3.20879 17.5001 3.20801C17.6751 3.20801 17.8501 3.25195 18.0251 3.33984C18.2001 3.42773 18.346 3.54906 18.4626 3.70384L24.4418 12.2205C24.714 12.6094 24.7385 13.0033 24.5153 13.4023C24.2921 13.8013 23.9565 14.0005 23.5085 13.9997L26.8335 19.1913C27.0862 19.5802 27.1057 19.9788 26.8918 20.3872C26.6779 20.7955 26.3376 20.9997 25.871 20.9997H22.4585Z" fill="#699BF7"/>
</svg>
